<mxfile host="app.diagrams.net" modified="2024-10-14T11:26:44.730Z" agent="Mozilla/5.0 (Windows NT 10.0; Win64; x64) AppleWebKit/537.36 (KHTML, like Gecko) Chrome/129.0.0.0 Safari/537.36" version="24.5.2" etag="mS-vs5_KBtjSdr8_J-ak" type="github">
  <diagram name="StrÃ¡nka-1" id="sfbK5C_OxcTGRKMmgGOR">
    <mxGraphModel>
      <root>
        <mxCell id="0" />
        <mxCell id="1" parent="0" />
      </root>
    </mxGraphModel>
  </diagram>
</mxfile>
